<svg width="34" height="32" viewBox="0 0 34 32" fill="none" xmlns="http://www.w3.org/2000/svg">
<path d="M32.75 19.8999V6.59991V6.59416C32.75 4.63781 32.75 3.65903 32.3689 2.91107C32.0333 2.2525 31.4972 1.71703 30.8386 1.38148C30.0899 1 29.1105 1 27.1503 1H6.85034C4.89016 1 3.90934 1 3.16064 1.38148C2.50208 1.71703 1.96703 2.2525 1.63148 2.91107C1.25 3.65976 1.25 4.63973 1.25 6.59991V26.6742C1.25 28.5391 1.25 29.4717 1.6323 29.9507C1.96478 30.3672 2.46876 30.6095 3.00171 30.6089C3.61451 30.6083 4.34302 30.0256 5.79932 28.8606L8.46625 26.727C9.03477 26.2722 9.31897 26.045 9.63551 25.8832C9.91634 25.7398 10.2149 25.6349 10.5238 25.5715C10.872 25.5 11.2364 25.5 11.9645 25.5H27.1501C29.1103 25.5 30.0899 25.4999 30.8386 25.1185C31.4972 24.7829 32.0333 24.2476 32.3689 23.5891C32.75 22.8411 32.75 21.862 32.75 19.9057V19.8999Z" stroke="#FFCB05" stroke-width="2" stroke-linecap="round" stroke-linejoin="round"/>
</svg>
