<svg width="16" height="17" viewBox="0 0 16 17" fill="none" xmlns="http://www.w3.org/2000/svg">
<path d="M14.1891 6.01733L10.2219 5.44077L8.44847 1.84545C8.40003 1.74702 8.32034 1.66733 8.2219 1.61889C7.97503 1.49702 7.67503 1.59858 7.55159 1.84545L5.77815 5.44077L1.81097 6.01733C1.70159 6.03295 1.60159 6.08452 1.52503 6.16264C1.43247 6.25778 1.38146 6.38577 1.38322 6.51849C1.38498 6.65121 1.43936 6.7778 1.5344 6.87045L4.40472 9.66889L3.72659 13.6205C3.71069 13.7124 3.72086 13.8069 3.75595 13.8933C3.79105 13.9798 3.84966 14.0547 3.92514 14.1095C4.00062 14.1643 4.08995 14.1969 4.183 14.2035C4.27605 14.2101 4.3691 14.1906 4.45159 14.147L8.00003 12.2814L11.5485 14.147C11.6453 14.1986 11.7578 14.2158 11.8657 14.197C12.1375 14.1501 12.3203 13.8923 12.2735 13.6205L11.5953 9.66889L14.4657 6.87045C14.5438 6.79389 14.5953 6.69389 14.611 6.58452C14.6532 6.31108 14.4625 6.05795 14.1891 6.01733Z" fill="#F2C94C"/>
</svg>
