<svg width="20" height="17" viewBox="0 0 20 17" fill="none" xmlns="http://www.w3.org/2000/svg">
<path d="M19.3337 8.3201C19.3337 8.76308 19.0045 9.12917 18.5774 9.18711L18.4587 9.1951L0.958708 9.1951C0.47546 9.1951 0.0837078 8.80335 0.0837078 8.3201C0.0837078 7.87712 0.412888 7.51103 0.839977 7.45309L0.958708 7.4451L18.4587 7.4451C18.942 7.4451 19.3337 7.83685 19.3337 8.3201Z" fill="#FFCB05"/>
<path d="M8.63389 14.7285C8.97634 15.0694 8.97753 15.6235 8.63656 15.9659C8.32658 16.2772 7.84054 16.3065 7.49745 16.0531L7.39913 15.9686L0.340792 8.94057C0.0285482 8.62967 0.000144005 8.14187 0.25559 7.79878L0.34074 7.70052L7.39907 0.671353C7.74149 0.330353 8.29551 0.3315 8.63651 0.673915C8.94651 0.985202 8.97374 1.47137 8.71887 1.81339L8.63395 1.91135L2.19858 8.32087L8.63389 14.7285Z" fill="#FFCB05"/>
</svg>
