<svg width="42" height="42" viewBox="0 0 42 42" fill="none" xmlns="http://www.w3.org/2000/svg">
<path d="M36.75 25.8999V12.5999V12.5942C36.75 10.6378 36.75 9.65903 36.3689 8.91107C36.0333 8.2525 35.4972 7.71703 34.8386 7.38148C34.0899 7 33.1105 7 31.1503 7H10.8503C8.89016 7 7.90934 7 7.16064 7.38148C6.50208 7.71703 5.96703 8.2525 5.63148 8.91107C5.25 9.65976 5.25 10.6397 5.25 12.5999V32.6742C5.25 34.5391 5.25 35.4717 5.6323 35.9507C5.96478 36.3672 6.46876 36.6095 7.00171 36.6089C7.61451 36.6083 8.34302 36.0256 9.79932 34.8606L12.4662 32.727C13.0348 32.2722 13.319 32.045 13.6355 31.8832C13.9163 31.7398 14.2149 31.6349 14.5238 31.5715C14.872 31.5 15.2364 31.5 15.9645 31.5H31.1501C33.1103 31.5 34.0899 31.4999 34.8386 31.1185C35.4972 30.7829 36.0333 30.2476 36.3689 29.5891C36.75 28.8411 36.75 27.862 36.75 25.9057V25.8999Z" stroke="#FFCB05" stroke-width="2" stroke-linecap="round" stroke-linejoin="round"/>
</svg>
