<svg width="20" height="20" viewBox="0 0 20 20" fill="none" xmlns="http://www.w3.org/2000/svg">
<path d="M18 13C18 12.4477 17.5523 12 17 12C16.4477 12 16 12.4477 16 13H18ZM7.0002 4C7.55248 4 8.0002 3.55228 8.0002 3C8.0002 2.44772 7.55248 2 7.0002 2V4ZM1.21799 4.09204L2.10899 4.54603L1.21799 4.09204ZM2.0918 3.21799L2.54579 4.10899L2.0918 3.21799ZM2.0918 18.782L2.54579 17.891H2.54579L2.0918 18.782ZM1.21799 17.908L0.32698 18.362H0.32698L1.21799 17.908ZM16.7822 17.908L15.8912 17.454L16.7822 17.908ZM15.9078 18.782L15.4538 17.891L15.9078 18.782ZM7 13H6C6 13.5523 6.44772 14 7 14V13ZM7 10L6.29289 9.29289C6.10536 9.48043 6 9.73478 6 10H7ZM16 1L16.7071 0.292893C16.3166 -0.0976311 15.6834 -0.0976311 15.2929 0.292893L16 1ZM19 4L19.7071 4.70711C20.0976 4.31658 20.0976 3.68342 19.7071 3.29289L19 4ZM10 13V14C10.2652 14 10.5196 13.8946 10.7071 13.7071L10 13ZM13.7071 3.29289C13.3166 2.90237 12.6834 2.90237 12.2929 3.29289C11.9024 3.68342 11.9024 4.31658 12.2929 4.70711L13.7071 3.29289ZM15.2929 7.70711C15.6834 8.09763 16.3166 8.09763 16.7071 7.70711C17.0976 7.31658 17.0976 6.68342 16.7071 6.29289L15.2929 7.70711ZM16 13V15.8H18V13H16ZM13.8002 18H4.2002V20H13.8002V18ZM2 15.8V6.20001H0V15.8H2ZM4.2002 4H7.0002V2H4.2002V4ZM2 6.20001C2 5.62346 2.00078 5.25119 2.02393 4.96785C2.04612 4.69619 2.0838 4.59548 2.10899 4.54603L0.32698 3.63805C0.134187 4.01643 0.0628707 4.40964 0.0305695 4.80499C-0.000777721 5.18866 0 5.65646 0 6.20001H2ZM4.2002 2C3.65663 2 3.18874 1.99922 2.80498 2.03057C2.40962 2.06286 2.01624 2.13416 1.63781 2.32698L2.54579 4.10899C2.59517 4.08383 2.69595 4.04613 2.9678 4.02393C3.25126 4.00078 3.62365 4 4.2002 4V2ZM2.10899 4.54603C2.205 4.35761 2.35788 4.20474 2.54579 4.10899L1.63781 2.32698C1.07306 2.61473 0.614469 3.07382 0.32698 3.63805L2.10899 4.54603ZM4.2002 18C3.62367 18 3.25127 17.9992 2.96782 17.9761C2.69598 17.9538 2.59519 17.9161 2.54579 17.891L1.63781 19.673C2.01623 19.8658 2.40959 19.9371 2.80496 19.9694C3.18873 20.0008 3.65662 20 4.2002 20V18ZM0 15.8C0 16.3436 -0.000777721 16.8114 0.0305696 17.195C0.062871 17.5904 0.134188 17.9836 0.32698 18.362L2.10899 17.454C2.0838 17.4045 2.04612 17.3038 2.02393 17.0322C2.00078 16.7488 2 16.3766 2 15.8H0ZM2.54579 17.891C2.35784 17.7952 2.20498 17.6424 2.10899 17.454L0.32698 18.362C0.61449 18.9262 1.0731 19.3853 1.63781 19.673L2.54579 17.891ZM16 15.8C16 16.3767 15.9993 16.7489 15.9762 17.0323C15.954 17.304 15.9164 17.4046 15.8912 17.454L17.6732 18.362C17.8661 17.9835 17.9373 17.5902 17.9696 17.1949C18.0008 16.8113 18 16.3435 18 15.8H16ZM13.8002 20C14.3438 20 14.8115 20.0008 15.1951 19.9694C15.5904 19.9371 15.9835 19.8657 16.3618 19.673L15.4538 17.891C15.4043 17.9162 15.3036 17.9539 15.0321 17.9761C14.7489 17.9992 14.3767 18 13.8002 18V20ZM15.8912 17.454C15.7956 17.6417 15.6424 17.7949 15.4538 17.891L16.3618 19.673C16.9258 19.3856 17.3854 18.9269 17.6732 18.362L15.8912 17.454ZM8 13V10H6V13H8ZM7.70711 10.7071L16.7071 1.70711L15.2929 0.292893L6.29289 9.29289L7.70711 10.7071ZM15.2929 1.70711L18.2929 4.70711L19.7071 3.29289L16.7071 0.292893L15.2929 1.70711ZM18.2929 3.29289L9.29289 12.2929L10.7071 13.7071L19.7071 4.70711L18.2929 3.29289ZM10 12H7V14H10V12ZM12.2929 4.70711L15.2929 7.70711L16.7071 6.29289L13.7071 3.29289L12.2929 4.70711Z" fill="black"/>
</svg>
