<svg width="31" height="29" viewBox="0 0 31 29" fill="none" xmlns="http://www.w3.org/2000/svg">
<path d="M27.6667 19C27.6667 18.4477 27.219 18 26.6667 18C26.1144 18 25.6667 18.4477 25.6667 19H27.6667ZM10.8337 5C11.386 5 11.8337 4.55228 11.8337 4C11.8337 3.44772 11.386 3 10.8337 3V5ZM1.67852 5.63806L2.55922 6.11173L1.67852 5.63806ZM3.06205 4.32698L3.49676 5.22755L3.06205 4.32698ZM3.06205 27.673L3.49676 26.7724L3.06205 27.673ZM1.67852 26.362L0.797818 26.8356L1.67852 26.362ZM26.3219 26.362L25.4412 25.8883L26.3219 26.362ZM24.9374 27.673L24.5027 26.7724L24.9374 27.673ZM10.8334 19H9.83337C9.83337 19.5523 10.2811 20 10.8334 20V19ZM10.8334 14.5L10.1456 13.774C9.94629 13.9629 9.83337 14.2254 9.83337 14.5H10.8334ZM25.0834 1L25.7711 0.274047C25.3854 -0.0913491 24.7813 -0.0913491 24.3956 0.274047L25.0834 1ZM29.8334 5.5L30.5211 6.22595C30.7205 6.0371 30.8334 5.77459 30.8334 5.5C30.8334 5.22541 30.7205 4.9629 30.5211 4.77405L29.8334 5.5ZM15.5834 19V20C15.8392 20 16.0854 19.9019 16.2711 19.726L15.5834 19ZM21.0211 4.77405C20.6202 4.39422 19.9873 4.41132 19.6074 4.81226C19.2276 5.21319 19.2447 5.84612 19.6456 6.22595L21.0211 4.77405ZM24.3956 10.726C24.7966 11.1058 25.4295 11.0887 25.8093 10.6877C26.1892 10.2868 26.1721 9.65388 25.7711 9.27405L24.3956 10.726ZM25.6667 19V23.2H27.6667V19H25.6667ZM21.6003 27H6.40035V29H21.6003V27ZM2.33337 23.2V8.80002H0.333374V23.2H2.33337ZM6.40035 5H10.8337V3H6.40035V5ZM2.33337 8.80002C2.33337 7.94253 2.33424 7.36289 2.37282 6.91556C2.41025 6.48159 2.4776 6.26349 2.55922 6.11173L0.797818 5.16439C0.534291 5.65437 0.429076 6.17716 0.380216 6.74371C0.332508 7.29688 0.333374 7.97735 0.333374 8.80002H2.33337ZM6.40035 3C5.52923 3 4.81876 2.9993 4.24301 3.04385C3.65714 3.08919 3.12567 3.18586 2.62734 3.42641L3.49676 5.22755C3.67582 5.14112 3.92675 5.0743 4.39731 5.03789C4.87798 5.0007 5.49797 5 6.40035 5V3ZM2.55922 6.11173C2.75964 5.73908 3.08459 5.42651 3.49676 5.22755L2.62734 3.42641C1.84782 3.80269 1.20459 4.40807 0.797818 5.16439L2.55922 6.11173ZM6.40035 27C5.49798 27 4.878 26.9993 4.39733 26.9621C3.92678 26.9257 3.67583 26.8588 3.49676 26.7724L2.62734 28.5735C3.12566 28.8141 3.65711 28.9108 4.24299 28.9561C4.81875 29.0007 5.52922 29 6.40035 29V27ZM0.333374 23.2C0.333374 24.0227 0.332508 24.7031 0.380216 25.2563C0.429076 25.8229 0.534293 26.3456 0.797818 26.8356L2.55922 25.8883C2.4776 25.7365 2.41024 25.5184 2.37282 25.0845C2.33424 24.6371 2.33337 24.0575 2.33337 23.2H0.333374ZM3.49676 26.7724C3.08455 26.5734 2.75962 26.2609 2.55922 25.8883L0.797818 26.8356C1.20462 27.592 1.84786 28.1973 2.62734 28.5735L3.49676 26.7724ZM25.6667 23.2C25.6667 24.0576 25.6659 24.6372 25.6274 25.0846C25.5901 25.5186 25.5228 25.7366 25.4412 25.8883L27.2026 26.8356C27.4662 26.3455 27.5713 25.8226 27.62 25.2561C27.6677 24.703 27.6667 24.0226 27.6667 23.2H25.6667ZM21.6003 29C22.4715 29 23.1816 29.0007 23.7571 28.9561C24.3428 28.9108 24.8739 28.814 25.3721 28.5735L24.5027 26.7724C24.3235 26.8589 24.0728 26.9257 23.6027 26.9621C23.1224 26.9993 22.5027 27 21.6003 27V29ZM25.4412 25.8883C25.2411 26.2602 24.9156 26.5731 24.5027 26.7724L25.3721 28.5735C26.1509 28.1976 26.7955 27.5926 27.2026 26.8356L25.4412 25.8883ZM11.8334 19V14.5H9.83337V19H11.8334ZM11.5211 15.226L25.7711 1.72595L24.3956 0.274047L10.1456 13.774L11.5211 15.226ZM24.3956 1.72595L29.1456 6.22595L30.5211 4.77405L25.7711 0.274047L24.3956 1.72595ZM29.1456 4.77405L14.8956 18.274L16.2711 19.726L30.5211 6.22595L29.1456 4.77405ZM15.5834 18H10.8334V20H15.5834V18ZM19.6456 6.22595L24.3956 10.726L25.7711 9.27405L21.0211 4.77405L19.6456 6.22595Z" fill="#FFCB05"/>
</svg>
