<svg width="20" height="19" viewBox="0 0 20 19" fill="none" xmlns="http://www.w3.org/2000/svg">
<path d="M10 18H16.4C16.9601 18 17.2405 18 17.4544 17.891C17.6425 17.7951 17.7948 17.6422 17.8906 17.454C17.9996 17.2401 18 16.96 18 16.4V11.6C18 11.0399 17.9996 10.7599 17.8906 10.546C17.7948 10.3579 17.6425 10.2049 17.4544 10.109C17.2405 10 16.9597 10 16.3996 10H11.5996M10 18V11.6M10 18H3.59961C3.03956 18 2.75981 18 2.5459 17.891C2.35774 17.7951 2.20487 17.6422 2.10899 17.454C2 17.2401 2 16.96 2 16.4V11.6C2 11.0399 2 10.7599 2.10899 10.546C2.20487 10.3579 2.35774 10.2049 2.5459 10.109C2.75981 10 3.03956 10 3.59961 10H8.39961M10 11.6C10 11.0399 10 10.7599 10.109 10.546C10.2049 10.3579 10.3577 10.2049 10.5459 10.109C10.7598 10 11.0396 10 11.5996 10M10 11.6C10 11.0399 9.99962 10.7599 9.89062 10.546C9.79475 10.3579 9.64254 10.2049 9.45438 10.109C9.24047 10 8.95966 10 8.39961 10M11.5996 10H17.3996C17.9597 10 18.2405 9.99998 18.4544 9.89099C18.6425 9.79512 18.7948 9.64218 18.8906 9.45401C18.9996 9.2401 19 8.96003 19 8.39998V7.59998C19 7.03992 18.9996 6.75993 18.8906 6.54602C18.7948 6.35786 18.6425 6.20487 18.4544 6.10899C18.2405 6 17.9597 6 17.3996 6H11.5996C11.0396 6 10.7598 6 10.5459 6.10899C10.3577 6.20487 10.2049 6.35786 10.109 6.54602C10 6.75993 10 7.03992 10 7.59998M11.5996 10C11.0396 10 10.7598 9.99998 10.5459 9.89099C10.3577 9.79512 10.2049 9.64218 10.109 9.45401C10 9.2401 10 8.96003 10 8.39998M8.39961 10H2.59961C2.03956 10 1.75981 9.99998 1.5459 9.89099C1.35774 9.79512 1.20487 9.64218 1.10899 9.45401C1 9.2401 1 8.96003 1 8.39998V7.59998C1 7.03992 1 6.75993 1.10899 6.54602C1.20487 6.35786 1.35774 6.20487 1.5459 6.10899C1.75981 6 2.03956 6 2.59961 6H8.39961C8.95966 6 9.24047 6 9.45438 6.10899C9.64254 6.20487 9.79475 6.35786 9.89062 6.54602C9.99962 6.75993 10 7.03992 10 7.59998M8.39961 10C8.95966 10 9.24047 9.99998 9.45438 9.89099C9.64254 9.79512 9.79475 9.64218 9.89062 9.45401C9.99962 9.2401 10 8.96003 10 8.39998M10 8.39998V7.59998M10 3.5V6M10 3.5C10 2.11929 11.1193 1 12.5 1C13.8807 1 15 2.11929 15 3.5C15 4.88071 13.8807 6 12.5 6H10M10 3.5C10 2.11929 8.88071 1 7.5 1C6.11929 1 5 2.11929 5 3.5C5 4.88071 6.11929 6 7.5 6H10" stroke="white" stroke-width="2" stroke-linecap="round" stroke-linejoin="round"/>
</svg>
