<svg width="34" height="35" viewBox="0 0 34 35" fill="none" xmlns="http://www.w3.org/2000/svg">
<path d="M32.3333 27.2918V16.4271V16.4257C32.3333 15.3802 32.3333 14.8572 32.2088 14.3705C32.0985 13.939 31.9168 13.5298 31.6716 13.1608C31.3949 12.7444 31.0099 12.4 30.2392 11.7109L21.0392 3.48591C19.6082 2.20656 18.8927 1.56697 18.0874 1.32366C17.3779 1.10927 16.622 1.10927 15.9125 1.32366C15.1077 1.56684 14.3929 2.20587 12.9635 3.48382L12.9611 3.48591L3.76111 11.7109L3.75928 11.7126C2.98974 12.4005 2.60472 12.7448 2.32829 13.1608C2.08312 13.5298 1.90151 13.939 1.79115 14.3705C1.66663 14.8575 1.66663 15.3807 1.66663 16.4271V27.2918C1.66663 29.1168 1.66663 30.0291 1.95842 30.7488C2.34748 31.7085 3.09417 32.471 4.03345 32.8686C4.7379 33.1667 5.63096 33.1667 7.41707 33.1667C9.20318 33.1667 10.0958 33.1667 10.8002 32.8686C11.7395 32.471 12.4856 31.7085 12.8746 30.7488C13.1664 30.0291 13.1666 29.1166 13.1666 27.2917V25.3333C13.1666 23.1702 14.8829 21.4167 17 21.4167C19.1171 21.4167 20.8333 23.1702 20.8333 25.3333V27.2917C20.8333 29.1166 20.8333 30.0291 21.1251 30.7488C21.5141 31.7085 22.2608 32.471 23.2001 32.8686C23.9046 33.1667 24.7976 33.1667 26.5837 33.1667C28.3698 33.1667 29.2625 33.1667 29.9669 32.8686C30.9062 32.471 31.6522 31.7085 32.0413 30.7488C32.3331 30.0291 32.3333 29.1168 32.3333 27.2918Z" stroke="#FFCB05" stroke-width="2" stroke-linecap="round" stroke-linejoin="round"/>
</svg>
