<svg width="38" height="37" viewBox="0 0 38 37" fill="none" xmlns="http://www.w3.org/2000/svg">
<path d="M19 35.1667H31.2667C32.3401 35.1667 32.8776 35.1666 33.2876 34.9532C33.6482 34.7654 33.9399 34.4659 34.1237 34.0974C34.3326 33.6785 34.3333 33.1301 34.3333 32.0333V22.6333C34.3333 21.5365 34.3326 20.9882 34.1237 20.5693C33.9399 20.2008 33.6482 19.9012 33.2876 19.7134C32.8776 19.5 32.3394 19.5 31.2659 19.5H22.0659M19 35.1667V22.6333M19 35.1667H6.73258C5.65915 35.1667 5.12297 35.1666 4.71297 34.9532C4.35233 34.7654 4.05933 34.4659 3.87557 34.0974C3.66667 33.6785 3.66667 33.1301 3.66667 32.0333V22.6333C3.66667 21.5365 3.66667 20.9882 3.87557 20.5693C4.05933 20.2008 4.35233 19.9012 4.71297 19.7134C5.12297 19.5 5.65915 19.5 6.73258 19.5H15.9326M19 22.6333C19 21.5365 19 20.9882 19.2089 20.5693C19.3927 20.2008 19.6857 19.9012 20.0463 19.7134C20.4563 19.5 20.9925 19.5 22.0659 19.5M19 22.6333C19 21.5365 18.9993 20.9882 18.7904 20.5693C18.6066 20.2008 18.3149 19.9012 17.9542 19.7134C17.5442 19.5 17.006 19.5 15.9326 19.5M22.0659 19.5H33.1826C34.256 19.5 34.7942 19.5 35.2042 19.2865C35.5649 19.0988 35.8566 18.7993 36.0404 18.4308C36.2493 18.0119 36.25 17.4634 36.25 16.3666V14.8C36.25 13.7032 36.2493 13.1549 36.0404 12.736C35.8566 12.3675 35.5649 12.0679 35.2042 11.8801C34.7942 11.6667 34.256 11.6667 33.1826 11.6667H22.0659C20.9925 11.6667 20.4563 11.6667 20.0463 11.8801C19.6857 12.0679 19.3927 12.3675 19.2089 12.736C19 13.1549 19 13.7032 19 14.8M22.0659 19.5C20.9925 19.5 20.4563 19.5 20.0463 19.2865C19.6857 19.0988 19.3927 18.7993 19.2089 18.4308C19 18.0119 19 17.4634 19 16.3666M15.9326 19.5H4.81592C3.74248 19.5 3.2063 19.5 2.79631 19.2865C2.43566 19.0988 2.14266 18.7993 1.9589 18.4308C1.75 18.0119 1.75 17.4634 1.75 16.3666V14.8C1.75 13.7032 1.75 13.1549 1.9589 12.736C2.14266 12.3675 2.43566 12.0679 2.79631 11.8801C3.2063 11.6667 3.74248 11.6667 4.81592 11.6667H15.9326C17.006 11.6667 17.5442 11.6667 17.9542 11.8801C18.3149 12.0679 18.6066 12.3675 18.7904 12.736C18.9993 13.1549 19 13.7032 19 14.8M15.9326 19.5C17.006 19.5 17.5442 19.5 17.9542 19.2865C18.3149 19.0988 18.6066 18.7993 18.7904 18.4308C18.9993 18.0119 19 17.4634 19 16.3666M19 16.3666V14.8M19 6.77083V11.6667M19 6.77083C19 4.06694 21.1453 1.875 23.7917 1.875C26.438 1.875 28.5833 4.06694 28.5833 6.77083C28.5833 9.47473 26.438 11.6667 23.7917 11.6667H19M19 6.77083C19 4.06694 16.8547 1.875 14.2083 1.875C11.562 1.875 9.41667 4.06694 9.41667 6.77083C9.41667 9.47473 11.562 11.6667 14.2083 11.6667H19" stroke="#FFCB05" stroke-width="2" stroke-linecap="round" stroke-linejoin="round"/>
</svg>
