<svg width="20" height="19" viewBox="0 0 20 19" fill="none" xmlns="http://www.w3.org/2000/svg">
<path d="M19 11.8V4.19995V4.19666C19 3.07875 19 2.51945 18.7822 2.09204C18.5905 1.71572 18.2841 1.40973 17.9078 1.21799C17.48 1 16.9203 1 15.8002 1H4.2002C3.08009 1 2.51962 1 2.0918 1.21799C1.71547 1.40973 1.40973 1.71572 1.21799 2.09204C1 2.51986 1 3.07985 1 4.19995V15.671C1 16.7367 1 17.2696 1.21846 17.5432C1.40845 17.7813 1.69644 17.9197 2.00098 17.9194C2.35115 17.919 2.76744 17.5861 3.59961 16.9203L5.12357 15.7012C5.44844 15.4413 5.61084 15.3114 5.79172 15.219C5.95219 15.137 6.12279 15.0771 6.29932 15.0408C6.49829 15 6.70652 15 7.12256 15H15.8001C16.9202 15 17.48 15 17.9078 14.782C18.2841 14.5902 18.5905 14.2844 18.7822 13.908C19 13.4806 19 12.9212 19 11.8032V11.8Z" stroke="black" stroke-width="2" stroke-linecap="round" stroke-linejoin="round"/>
</svg>
