<svg width="37" height="40" viewBox="0 0 37 40" fill="none" xmlns="http://www.w3.org/2000/svg">
<rect width="37" height="40" rx="16" fill="#FFCB05"/>
<path d="M13.5 25.3333V14.6666C13.5 13.7871 13.5 13.3473 13.6851 13.087C13.8466 12.8599 14.0956 12.7105 14.3721 12.6749C14.6885 12.6341 15.0757 12.8406 15.8504 13.2537L15.8525 13.2549L25.8525 18.5882C26.712 19.0466 27.1418 19.2758 27.2826 19.581C27.4053 19.8469 27.4053 20.1531 27.2826 20.4189C27.1418 20.7241 26.712 20.9534 25.8525 21.4117L15.8525 26.7451L15.8498 26.7465C15.0755 27.1595 14.6884 27.3659 14.3721 27.3251C14.0956 27.2895 13.8466 27.1401 13.6851 26.913C13.5 26.6527 13.5 26.2129 13.5 25.3333Z" stroke="black" stroke-width="2" stroke-linecap="round" stroke-linejoin="round"/>
</svg>
