<svg width="28" height="28" viewBox="0 0 28 28" fill="none" xmlns="http://www.w3.org/2000/svg">
<mask id="mask0_1_9832" style="mask-type:luminance" maskUnits="userSpaceOnUse" x="2" y="2" width="23" height="25">
<path fill-rule="evenodd" clip-rule="evenodd" d="M2.33333 2.33334H24.8323V26.5078H2.33333V2.33334Z" fill="white"/>
</mask>
<g mask="url(#mask0_1_9832)">
<path fill-rule="evenodd" clip-rule="evenodd" d="M8.40256 20.3467C8.66973 20.3467 8.9369 20.3805 9.19823 20.4505C9.9869 20.6628 10.6717 21.1902 11.0777 21.8983C11.3414 22.3428 11.4872 22.862 11.4919 23.3917C11.4919 24.15 12.1009 24.7578 12.8499 24.7578H14.3117C15.0572 24.7578 15.6662 24.1535 15.6697 23.408C15.6651 22.5843 15.9871 21.8015 16.5762 21.2123C17.1572 20.6313 17.9692 20.2825 18.7812 20.3058C19.3132 20.3187 19.8254 20.4622 20.2769 20.7188C20.9267 21.091 21.7562 20.8693 22.1319 20.2277L22.9066 18.9362C23.0792 18.6387 23.1294 18.2653 23.0372 17.9212C22.9462 17.577 22.7176 17.2783 22.4096 17.1022C21.6886 16.6868 21.1741 16.0172 20.9606 15.2145C20.7494 14.427 20.8649 13.5672 21.2767 12.859C21.5451 12.3923 21.9382 11.9992 22.4096 11.7285C23.0419 11.3587 23.2636 10.5315 22.8961 9.88751C22.8809 9.86184 22.8669 9.83501 22.8552 9.80701L22.1716 8.62168C21.7994 7.97418 20.9711 7.75134 20.3212 8.12118C19.6189 8.53651 18.7836 8.65551 17.9809 8.44434C17.1794 8.23668 16.5074 7.72918 16.0886 7.01284C15.8202 6.56484 15.6744 6.04334 15.6697 5.51251C15.6802 5.11351 15.5402 4.75534 15.2859 4.49284C15.0327 4.23151 14.6769 4.08334 14.3117 4.08334H12.8499C12.4882 4.08334 12.1499 4.22451 11.8944 4.47884C11.6401 4.73434 11.5012 5.07384 11.5036 5.43551C11.4791 7.14118 10.0849 8.51434 8.39673 8.51434C7.8554 8.50851 7.3339 8.36268 6.88123 8.09201C6.2454 7.73034 5.41473 7.95318 5.04256 8.60068L4.25273 9.89918C3.89106 10.5268 4.11273 11.3563 4.75673 11.7308C5.71223 12.2838 6.3084 13.3152 6.3084 14.4212C6.3084 15.5272 5.71223 16.5573 4.7544 17.1115C4.1139 17.4825 3.89223 18.3073 4.26323 18.949L4.9994 20.2183C5.1814 20.5462 5.4789 20.783 5.82306 20.8798C6.16606 20.9755 6.54406 20.9347 6.85906 20.7597C7.32223 20.4878 7.86123 20.3467 8.40256 20.3467ZM14.3117 26.5078H12.8499C11.1361 26.5078 9.7419 25.1148 9.7419 23.401C9.73956 23.1898 9.6789 22.9705 9.56573 22.7803C9.38256 22.4607 9.08623 22.232 8.7444 22.141C8.4049 22.05 8.03273 22.1002 7.72706 22.2775C6.9944 22.6858 6.13223 22.785 5.34356 22.5633C4.55606 22.3405 3.8759 21.7992 3.4769 21.0817L2.74773 19.8252C1.8949 18.3458 2.4024 16.45 3.8794 15.596C4.29823 15.3545 4.5584 14.9042 4.5584 14.4212C4.5584 13.9382 4.29823 13.4867 3.8794 13.2452C2.40123 12.3865 1.8949 10.486 2.74656 9.00668L3.53756 7.70818C4.37873 6.24518 6.2804 5.72951 7.76323 6.58118C7.96506 6.70134 8.1844 6.76201 8.40723 6.76434C9.13406 6.76434 9.7419 6.16468 9.75356 5.42734C9.7489 4.61418 10.0697 3.83368 10.6542 3.24451C11.2411 2.65651 12.0204 2.33334 12.8499 2.33334H14.3117C15.1471 2.33334 15.9591 2.67634 16.5412 3.27251C17.1222 3.87218 17.4431 4.69468 17.4186 5.52884C17.4209 5.71668 17.4827 5.93368 17.5947 6.12384C17.7802 6.43884 18.0731 6.66051 18.4207 6.75151C18.7684 6.83784 19.1324 6.79118 19.4416 6.60801C20.9349 5.75518 22.8354 6.26618 23.6882 7.74784L24.4151 9.00668C24.4337 9.04051 24.4501 9.07318 24.4641 9.10701C25.2364 10.5665 24.7207 12.404 23.2857 13.2428C23.0769 13.363 22.9077 13.531 22.7911 13.734C22.6102 14.0478 22.5601 14.4212 22.6511 14.7642C22.7444 15.1142 22.9672 15.4047 23.2811 15.5843C23.9892 15.9915 24.5177 16.6775 24.7289 17.4697C24.9401 18.2607 24.8246 19.1193 24.4127 19.8275L23.6381 21.1178C22.7852 22.5832 20.8847 23.0907 19.4066 22.2367C19.2094 22.1235 18.9819 22.0617 18.7556 22.0558H18.7486C18.4114 22.0558 18.0649 22.1993 17.8129 22.4502C17.5574 22.7057 17.4174 23.0463 17.4197 23.408C17.4116 25.1218 16.0174 26.5078 14.3117 26.5078Z" fill="#FFCB05"/>
</g>
<path fill-rule="evenodd" clip-rule="evenodd" d="M13.5859 12.2198C12.3726 12.2198 11.3856 13.208 11.3856 14.4213C11.3856 15.6346 12.3726 16.6205 13.5859 16.6205C14.7993 16.6205 15.7863 15.6346 15.7863 14.4213C15.7863 13.208 14.7993 12.2198 13.5859 12.2198ZM13.5859 18.3705C11.4078 18.3705 9.6356 16.5995 9.6356 14.4213C9.6356 12.2431 11.4078 10.4698 13.5859 10.4698C15.7641 10.4698 17.5363 12.2431 17.5363 14.4213C17.5363 16.5995 15.7641 18.3705 13.5859 18.3705Z" fill="#FFCB05"/>
</svg>
