<svg width="13" height="12" viewBox="0 0 13 12" fill="none" xmlns="http://www.w3.org/2000/svg">
<path fill-rule="evenodd" clip-rule="evenodd" d="M11.0797 3.39877C11.3345 3.4553 11.5804 3.54689 11.8056 3.67796C13.0645 4.41494 13.3672 6.02045 12.5272 7.49741C11.9876 8.44679 10.8072 9.00407 9.75415 9.14256C9.57064 10.4945 8.14572 12 6.4999 12H6.49928C4.85346 11.9989 3.42901 10.4938 3.24565 9.14256C2.19195 9.00407 1.01223 8.44679 0.472607 7.49678C-0.367049 6.02108 -0.0642117 4.41494 1.19294 3.67859C1.41928 3.54689 1.66557 3.45578 1.92043 3.39877C1.9176 3.38848 1.91446 3.37788 1.91131 3.36728L1.91131 3.36727C1.90703 3.35282 1.90275 3.33837 1.89924 3.32471L1.89907 3.32405C1.80916 2.9826 1.53731 1.95015 2.17248 1.09513C2.63301 0.474843 3.33314 0.284726 3.71031 0.182306L3.71175 0.181916C4.02175 0.0977484 4.43535 0 4.86857 0C5.51973 0 6.07727 0.228343 6.50037 0.631338C6.92347 0.228343 7.48101 0 8.13217 0C8.56539 0 8.97852 0.0977484 9.29071 0.182548C9.66598 0.283613 10.3667 0.473582 10.8278 1.09466C11.4638 1.95018 11.1913 2.98333 11.1015 3.32354L11.1015 3.3236C11.0983 3.33508 11.0948 3.34695 11.0912 3.35889C11.0872 3.37224 11.0832 3.38568 11.0797 3.39877ZM8.92883 1.54676C8.20352 1.34905 7.39798 1.22809 7.12863 2.24474C6.85991 3.26202 7.22958 5.03428 7.95489 5.23104C8.67958 5.42827 9.48574 3.97579 9.75509 2.95851C10.0232 1.94123 9.65368 1.74336 8.92883 1.54676ZM4.07113 1.54629C4.79645 1.34842 5.60214 1.22809 5.87133 2.24427C6.13943 3.26154 5.77038 5.03444 5.04507 5.23057C4.32022 5.4278 3.51469 3.97484 3.24487 2.95803C2.97615 1.94123 3.34582 1.74289 4.07113 1.54629ZM1.68006 6.79091C2.13946 7.59958 3.75614 7.98047 4.33269 7.64364C4.8268 7.35561 4.39383 6.63123 3.96966 5.92155L3.96966 5.92154L3.96965 5.92153C3.89942 5.80403 3.82943 5.68694 3.76393 5.57229C3.30454 4.76299 2.46613 4.56465 1.88959 4.90148C1.31257 5.23941 1.22066 5.98318 1.68006 6.79091ZM6.49975 10.587C5.46054 10.5864 4.61808 9.46344 4.61808 8.85531C4.61808 8.34532 5.20965 8.35828 6.01285 8.37586C6.16815 8.37926 6.33137 8.38284 6.49975 8.38284C6.67006 8.38302 6.83509 8.37948 6.99199 8.37611C7.79246 8.35895 8.38142 8.34632 8.38142 8.85531C8.38126 9.4628 7.53896 10.587 6.49975 10.587ZM8.66681 7.64412C9.24319 7.98047 10.86 7.60006 11.3194 6.79138C11.7788 5.98381 11.6868 5.24004 11.1098 4.90211C10.5338 4.56575 9.6948 4.76362 9.2354 5.57292C9.16973 5.68801 9.09952 5.80556 9.02907 5.92351C8.60558 6.63255 8.17356 7.35587 8.66681 7.64412Z" fill="#0E0D0D"/>
</svg>
